<svg width="175" height="46" viewBox="0 0 175 46" fill="none" xmlns="http://www.w3.org/2000/svg">
<path d="M68.2486 10.4545H71.3239V19.9006C71.3239 20.9612 71.0705 21.8892 70.5639 22.6847C70.062 23.4801 69.3589 24.1004 68.4545 24.5455C67.5502 24.9858 66.4967 25.206 65.294 25.206C64.0866 25.206 63.0308 24.9858 62.1264 24.5455C61.2221 24.1004 60.5189 23.4801 60.017 22.6847C59.5152 21.8892 59.2642 20.9612 59.2642 19.9006V10.4545H62.3395V19.6378C62.3395 20.1918 62.4602 20.6842 62.7017 21.1151C62.9479 21.5459 63.2936 21.8845 63.7386 22.1307C64.1837 22.3769 64.7022 22.5 65.294 22.5C65.8906 22.5 66.4091 22.3769 66.8494 22.1307C67.2945 21.8845 67.6378 21.5459 67.8793 21.1151C68.1255 20.6842 68.2486 20.1918 68.2486 19.6378V10.4545ZM77.1228 18.6932V25H74.0972V14.0909H76.9808V16.0156H77.1086C77.3501 15.3812 77.7549 14.8793 78.3231 14.5099C78.8913 14.1359 79.5802 13.9489 80.3898 13.9489C81.1474 13.9489 81.8079 14.1146 82.3714 14.446C82.9348 14.7775 83.3728 15.2509 83.6853 15.8665C83.9978 16.4773 84.154 17.2064 84.154 18.054V25H81.1285V18.5938C81.1332 17.9261 80.9628 17.4053 80.6171 17.0312C80.2715 16.6525 79.7956 16.4631 79.1896 16.4631C78.7824 16.4631 78.4225 16.5507 78.11 16.7259C77.8022 16.901 77.5608 17.1567 77.3856 17.4929C77.2151 17.8243 77.1275 18.2244 77.1228 18.6932ZM86.8386 25V14.0909H89.8642V25H86.8386ZM88.3585 12.6847C87.9087 12.6847 87.5228 12.5355 87.2009 12.2372C86.8836 11.9342 86.725 11.572 86.725 11.1506C86.725 10.7339 86.8836 10.3764 87.2009 10.0781C87.5228 9.77509 87.9087 9.62358 88.3585 9.62358C88.8083 9.62358 89.1919 9.77509 89.5091 10.0781C89.8311 10.3764 89.992 10.7339 89.992 11.1506C89.992 11.572 89.8311 11.9342 89.5091 12.2372C89.1919 12.5355 88.8083 12.6847 88.3585 12.6847ZM95.1518 25H91.8563L96.8776 10.4545H100.841L105.855 25H102.559L98.916 13.7784H98.8023L95.1518 25ZM94.9458 19.2827H102.73V21.6832H94.9458V19.2827ZM110.874 10.4545V25H107.849V10.4545H110.874ZM120.594 20.3551V14.0909H123.619V25H120.714V23.0185H120.601C120.355 23.6577 119.945 24.1714 119.372 24.5597C118.804 24.9479 118.11 25.142 117.291 25.142C116.562 25.142 115.92 24.9763 115.366 24.6449C114.813 24.3134 114.379 23.8423 114.067 23.2315C113.759 22.6207 113.603 21.8892 113.598 21.0369V14.0909H116.624V20.4972C116.628 21.1411 116.801 21.6501 117.142 22.0241C117.483 22.3982 117.94 22.5852 118.513 22.5852C118.877 22.5852 119.218 22.5024 119.536 22.3366C119.853 22.1662 120.108 21.9152 120.303 21.5838C120.501 21.2524 120.598 20.8428 120.594 20.3551ZM126.339 25V14.0909H129.223V16.0156H129.351C129.578 15.3764 129.957 14.8722 130.487 14.5028C131.017 14.1335 131.652 13.9489 132.391 13.9489C133.139 13.9489 133.776 14.1359 134.301 14.5099C134.827 14.8793 135.177 15.3812 135.352 16.0156H135.466C135.688 15.3906 136.091 14.8911 136.673 14.517C137.26 14.1383 137.954 13.9489 138.754 13.9489C139.772 13.9489 140.598 14.2732 141.233 14.9219C141.872 15.5658 142.192 16.4796 142.192 17.6634V25H139.173V18.2599C139.173 17.6539 139.012 17.1993 138.69 16.8963C138.368 16.5933 137.966 16.4418 137.483 16.4418C136.934 16.4418 136.505 16.617 136.197 16.9673C135.89 17.313 135.736 17.7699 135.736 18.3381V25H132.802V18.196C132.802 17.661 132.649 17.2348 132.341 16.9176C132.038 16.6004 131.638 16.4418 131.141 16.4418C130.804 16.4418 130.501 16.527 130.231 16.6974C129.966 16.8632 129.756 17.0975 129.599 17.4006C129.443 17.6989 129.365 18.0492 129.365 18.4517V25H126.339ZM147.907 18.6932V25H144.882V14.0909H147.765V16.0156H147.893C148.134 15.3812 148.539 14.8793 149.107 14.5099C149.676 14.1359 150.365 13.9489 151.174 13.9489C151.932 13.9489 152.592 14.1146 153.156 14.446C153.719 14.7775 154.157 15.2509 154.47 15.8665C154.782 16.4773 154.938 17.2064 154.938 18.054V25H151.913V18.5938C151.918 17.9261 151.747 17.4053 151.401 17.0312C151.056 16.6525 150.58 16.4631 149.974 16.4631C149.567 16.4631 149.207 16.5507 148.894 16.7259C148.587 16.901 148.345 17.1567 148.17 17.4929C148 17.8243 147.912 18.2244 147.907 18.6932ZM157.623 25V14.0909H160.649V25H157.623ZM159.143 12.6847C158.693 12.6847 158.307 12.5355 157.985 12.2372C157.668 11.9342 157.509 11.572 157.509 11.1506C157.509 10.7339 157.668 10.3764 157.985 10.0781C158.307 9.77509 158.693 9.62358 159.143 9.62358C159.593 9.62358 159.976 9.77509 160.293 10.0781C160.615 10.3764 160.776 10.7339 160.776 11.1506C160.776 11.572 160.615 11.9342 160.293 12.2372C159.976 12.5355 159.593 12.6847 159.143 12.6847Z" fill="#3B60C9"/>
<path d="M62.3807 33.1818H63.2614V37.0085C63.2614 37.4157 63.1657 37.7765 62.9744 38.0909C62.7831 38.4034 62.5142 38.6496 62.1676 38.8295C61.821 39.0076 61.4148 39.0966 60.9489 39.0966C60.4848 39.0966 60.0795 39.0076 59.733 38.8295C59.3864 38.6496 59.1174 38.4034 58.9261 38.0909C58.7348 37.7765 58.6392 37.4157 58.6392 37.0085V33.1818H59.517V36.9375C59.517 37.2008 59.5748 37.4347 59.6903 37.6392C59.8078 37.8438 59.9735 38.0047 60.1875 38.1222C60.4015 38.2377 60.6553 38.2955 60.9489 38.2955C61.2443 38.2955 61.4991 38.2377 61.7131 38.1222C61.929 38.0047 62.0938 37.8438 62.2074 37.6392C62.3229 37.4347 62.3807 37.2008 62.3807 36.9375V33.1818ZM65.0389 36.4091V39H64.1895V34.6364H65.0048V35.3466H65.0588C65.1592 35.1155 65.3164 34.9299 65.5304 34.7898C65.7463 34.6496 66.0181 34.5795 66.3457 34.5795C66.6431 34.5795 66.9035 34.642 67.127 34.767C67.3504 34.8902 67.5237 35.0739 67.6468 35.3182C67.77 35.5625 67.8315 35.8646 67.8315 36.2244V39H66.9821V36.3267C66.9821 36.0104 66.8997 35.7633 66.7349 35.5852C66.5701 35.4053 66.3438 35.3153 66.0559 35.3153C65.859 35.3153 65.6838 35.358 65.5304 35.4432C65.3789 35.5284 65.2586 35.6534 65.1696 35.8182C65.0825 35.9811 65.0389 36.178 65.0389 36.4091ZM68.6907 39V34.6364H69.5401V39H68.6907ZM69.1197 33.9631C68.972 33.9631 68.8451 33.9138 68.739 33.8153C68.6348 33.715 68.5828 33.5956 68.5828 33.4574C68.5828 33.3172 68.6348 33.1979 68.739 33.0994C68.8451 32.9991 68.972 32.9489 69.1197 32.9489C69.2674 32.9489 69.3934 32.9991 69.4975 33.0994C69.6036 33.1979 69.6566 33.3172 69.6566 33.4574C69.6566 33.5956 69.6036 33.715 69.4975 33.8153C69.3934 33.9138 69.2674 33.9631 69.1197 33.9631ZM74.1359 34.6364L72.5535 39H71.6444L70.0591 34.6364H70.9711L72.0762 37.9943H72.1216L73.2239 34.6364H74.1359ZM76.3864 39.0881C75.9565 39.0881 75.5862 38.9962 75.2756 38.8125C74.9669 38.6269 74.7282 38.3665 74.5597 38.0312C74.393 37.6941 74.3097 37.2992 74.3097 36.8466C74.3097 36.3996 74.393 36.0057 74.5597 35.6648C74.7282 35.3239 74.9631 35.0578 75.2642 34.8665C75.5673 34.6752 75.9214 34.5795 76.3267 34.5795C76.5729 34.5795 76.8116 34.6203 77.0426 34.7017C77.2737 34.7831 77.4811 34.911 77.6648 35.0852C77.8485 35.2595 77.9934 35.4858 78.0995 35.7642C78.2055 36.0407 78.2586 36.3769 78.2586 36.7727V37.0739H74.7898V36.4375H77.4262C77.4262 36.214 77.3807 36.0161 77.2898 35.8438C77.1989 35.6695 77.0711 35.5322 76.9063 35.4318C76.7434 35.3314 76.5521 35.2812 76.3324 35.2812C76.0938 35.2812 75.8854 35.34 75.7074 35.4574C75.5313 35.5729 75.3949 35.7244 75.2983 35.9119C75.2036 36.0975 75.1563 36.2992 75.1563 36.517V37.0142C75.1563 37.3059 75.2074 37.554 75.3097 37.7585C75.4139 37.9631 75.5587 38.1193 75.7443 38.2273C75.93 38.3333 76.1468 38.3864 76.3949 38.3864C76.5559 38.3864 76.7027 38.3636 76.8353 38.3182C76.9678 38.2708 77.0824 38.2008 77.179 38.108C77.2756 38.0152 77.3495 37.9006 77.4006 37.7642L78.2046 37.9091C78.1402 38.1458 78.0246 38.3532 77.858 38.5312C77.6932 38.7074 77.4858 38.8447 77.2358 38.9432C76.9877 39.0398 76.7046 39.0881 76.3864 39.0881ZM78.921 39V34.6364H79.742V35.3295H79.7875C79.867 35.0947 80.0072 34.91 80.208 34.7756C80.4106 34.6392 80.6398 34.571 80.8955 34.571C80.9485 34.571 81.011 34.5729 81.083 34.5767C81.1568 34.5805 81.2146 34.5852 81.2563 34.5909V35.4034C81.2222 35.3939 81.1616 35.3835 81.0744 35.3722C80.9873 35.3589 80.9002 35.3523 80.8131 35.3523C80.6123 35.3523 80.4333 35.3949 80.2761 35.4801C80.1208 35.5634 79.9977 35.6799 79.9068 35.8295C79.8159 35.9773 79.7705 36.1458 79.7705 36.3352V39H78.921ZM84.9812 35.7017L84.2113 35.8381C84.1791 35.7396 84.128 35.6458 84.0579 35.5568C83.9897 35.4678 83.8969 35.3949 83.7795 35.3381C83.6621 35.2812 83.5153 35.2528 83.3392 35.2528C83.0986 35.2528 82.8979 35.3068 82.7369 35.4148C82.5759 35.5208 82.4954 35.6581 82.4954 35.8267C82.4954 35.9725 82.5494 36.09 82.6574 36.179C82.7653 36.268 82.9396 36.3409 83.1801 36.3977L83.8733 36.5568C84.2748 36.6496 84.574 36.7926 84.771 36.9858C84.968 37.179 85.0664 37.4299 85.0664 37.7386C85.0664 38 84.9907 38.233 84.8392 38.4375C84.6896 38.6402 84.4803 38.7992 84.2113 38.9148C83.9443 39.0303 83.6346 39.0881 83.2824 39.0881C82.7937 39.0881 82.395 38.9839 82.0863 38.7756C81.7776 38.5653 81.5882 38.267 81.5182 37.8807L82.3392 37.7557C82.3903 37.9697 82.4954 38.1316 82.6545 38.2415C82.8136 38.3494 83.021 38.4034 83.2767 38.4034C83.5551 38.4034 83.7776 38.3456 83.9443 38.2301C84.111 38.1127 84.1943 37.9697 84.1943 37.8011C84.1943 37.6648 84.1432 37.5502 84.0409 37.4574C83.9405 37.3646 83.7861 37.2945 83.5778 37.2472L82.8392 37.0852C82.432 36.9924 82.1308 36.8447 81.9358 36.642C81.7426 36.4394 81.646 36.1828 81.646 35.8722C81.646 35.6146 81.718 35.3892 81.8619 35.196C82.0058 35.0028 82.2047 34.8523 82.4585 34.7443C82.7123 34.6345 83.003 34.5795 83.3307 34.5795C83.8022 34.5795 84.1735 34.6818 84.4443 34.8864C84.7151 35.089 84.8941 35.3608 84.9812 35.7017ZM85.7204 39V34.6364H86.5698V39H85.7204ZM86.1494 33.9631C86.0016 33.9631 85.8748 33.9138 85.7687 33.8153C85.6645 33.715 85.6124 33.5956 85.6124 33.4574C85.6124 33.3172 85.6645 33.1979 85.7687 33.0994C85.8748 32.9991 86.0016 32.9489 86.1494 32.9489C86.2971 32.9489 86.4231 32.9991 86.5272 33.0994C86.6333 33.1979 86.6863 33.3172 86.6863 33.4574C86.6863 33.5956 86.6333 33.715 86.5272 33.8153C86.4231 33.9138 86.2971 33.9631 86.1494 33.9631ZM89.4695 34.6364V35.3182H87.086V34.6364H89.4695ZM87.7252 33.5909H88.5746V37.7188C88.5746 37.8835 88.5993 38.0076 88.6485 38.0909C88.6977 38.1723 88.7612 38.2282 88.8388 38.2585C88.9184 38.2869 89.0046 38.3011 89.0974 38.3011C89.1655 38.3011 89.2252 38.2964 89.2763 38.2869C89.3275 38.2775 89.3672 38.2699 89.3957 38.2642L89.5491 38.9659C89.4998 38.9848 89.4297 39.0038 89.3388 39.0227C89.2479 39.0436 89.1343 39.0549 88.9979 39.0568C88.7744 39.0606 88.5661 39.0208 88.3729 38.9375C88.1797 38.8542 88.0235 38.7254 87.9042 38.5511C87.7849 38.3769 87.7252 38.1581 87.7252 37.8949V33.5909ZM90.6661 40.6364C90.5392 40.6364 90.4237 40.6259 90.3195 40.6051C90.2153 40.5862 90.1377 40.5653 90.0865 40.5426L90.2911 39.8466C90.4464 39.8883 90.5846 39.9063 90.7059 39.9006C90.8271 39.8949 90.9341 39.8494 91.0269 39.7642C91.1216 39.679 91.2049 39.5398 91.2769 39.3466L91.382 39.0568L89.7854 34.6364H90.6945L91.7996 38.0227H91.8451L92.9502 34.6364H93.8621L92.0638 39.5824C91.9805 39.8097 91.8744 40.0019 91.7456 40.1591C91.6168 40.3182 91.4634 40.4375 91.2854 40.517C91.1074 40.5966 90.9009 40.6364 90.6661 40.6364ZM96.7772 39H95.8454L97.9392 33.1818H98.9534L101.047 39H100.115L98.4704 34.2386H98.425L96.7772 39ZM96.9335 36.7216H99.9562V37.4602H96.9335V36.7216ZM102.389 33.1818V39H101.539V33.1818H102.389ZM106.016 37.1903V34.6364H106.868V39H106.033V38.2443H105.987C105.887 38.4773 105.726 38.6714 105.504 38.8267C105.284 38.9801 105.011 39.0568 104.683 39.0568C104.403 39.0568 104.155 38.9953 103.939 38.8722C103.725 38.7472 103.556 38.5625 103.433 38.3182C103.312 38.0739 103.251 37.7718 103.251 37.4119V34.6364H104.101V37.3097C104.101 37.607 104.183 37.8437 104.348 38.0199C104.513 38.196 104.727 38.2841 104.99 38.2841C105.149 38.2841 105.307 38.2443 105.464 38.1648C105.623 38.0852 105.755 37.965 105.859 37.804C105.965 37.643 106.017 37.4384 106.016 37.1903ZM107.729 39V34.6364H108.544V35.3466H108.598C108.689 35.1061 108.838 34.9186 109.044 34.7841C109.251 34.6477 109.498 34.5795 109.786 34.5795C110.078 34.5795 110.322 34.6477 110.519 34.7841C110.718 34.9205 110.865 35.108 110.959 35.3466H111.005C111.109 35.1136 111.275 34.928 111.502 34.7898C111.729 34.6496 112 34.5795 112.314 34.5795C112.71 34.5795 113.033 34.7036 113.283 34.9517C113.535 35.1998 113.661 35.5739 113.661 36.0739V39H112.812V36.1534C112.812 35.858 112.731 35.6439 112.57 35.5114C112.409 35.3788 112.217 35.3125 111.993 35.3125C111.717 35.3125 111.502 35.3977 111.348 35.5682C111.195 35.7367 111.118 35.9536 111.118 36.2188V39H110.272V36.0994C110.272 35.8627 110.198 35.6723 110.05 35.5284C109.902 35.3845 109.71 35.3125 109.473 35.3125C109.312 35.3125 109.164 35.3551 109.027 35.4403C108.893 35.5237 108.784 35.6402 108.701 35.7898C108.619 35.9394 108.579 36.1127 108.579 36.3097V39H107.729ZM115.369 36.4091V39H114.519V34.6364H115.335V35.3466H115.389C115.489 35.1155 115.646 34.9299 115.86 34.7898C116.076 34.6496 116.348 34.5795 116.676 34.5795C116.973 34.5795 117.233 34.642 117.457 34.767C117.68 34.8902 117.854 35.0739 117.977 35.3182C118.1 35.5625 118.162 35.8646 118.162 36.2244V39H117.312V36.3267C117.312 36.0104 117.23 35.7633 117.065 35.5852C116.9 35.4053 116.674 35.3153 116.386 35.3153C116.189 35.3153 116.014 35.358 115.86 35.4432C115.709 35.5284 115.589 35.6534 115.5 35.8182C115.412 35.9811 115.369 36.178 115.369 36.4091ZM119.021 39V34.6364H119.87V39H119.021ZM119.45 33.9631C119.302 33.9631 119.175 33.9138 119.069 33.8153C118.965 33.715 118.913 33.5956 118.913 33.4574C118.913 33.3172 118.965 33.1979 119.069 33.0994C119.175 32.9991 119.302 32.9489 119.45 32.9489C119.597 32.9489 119.723 32.9991 119.828 33.0994C119.934 33.1979 119.987 33.3172 119.987 33.4574C119.987 33.5956 119.934 33.715 119.828 33.8153C119.723 33.9138 119.597 33.9631 119.45 33.9631ZM122.638 39V33.1818H123.516V35.7102H126.417V33.1818H127.297V39H126.417V36.4631H123.516V39H122.638ZM130.265 34.6364V35.3182H127.881V34.6364H130.265ZM128.52 33.5909H129.37V37.7188C129.37 37.8835 129.394 38.0076 129.443 38.0909C129.493 38.1723 129.556 38.2282 129.634 38.2585C129.713 38.2869 129.8 38.3011 129.892 38.3011C129.961 38.3011 130.02 38.2964 130.071 38.2869C130.122 38.2775 130.162 38.2699 130.191 38.2642L130.344 38.9659C130.295 38.9848 130.225 39.0038 130.134 39.0227C130.043 39.0436 129.929 39.0549 129.793 39.0568C129.569 39.0606 129.361 39.0208 129.168 38.9375C128.975 38.8542 128.818 38.7254 128.699 38.5511C128.58 38.3769 128.52 38.1581 128.52 37.8949V33.5909ZM130.924 39V34.6364H131.739V35.3466H131.793C131.884 35.1061 132.033 34.9186 132.239 34.7841C132.446 34.6477 132.693 34.5795 132.981 34.5795C133.273 34.5795 133.517 34.6477 133.714 34.7841C133.913 34.9205 134.06 35.108 134.154 35.3466H134.2C134.304 35.1136 134.47 34.928 134.697 34.7898C134.924 34.6496 135.195 34.5795 135.509 34.5795C135.905 34.5795 136.228 34.7036 136.478 34.9517C136.73 35.1998 136.856 35.5739 136.856 36.0739V39H136.007V36.1534C136.007 35.858 135.926 35.6439 135.765 35.5114C135.604 35.3788 135.412 35.3125 135.188 35.3125C134.912 35.3125 134.697 35.3977 134.543 35.5682C134.39 35.7367 134.313 35.9536 134.313 36.2188V39H133.467V36.0994C133.467 35.8627 133.393 35.6723 133.245 35.5284C133.097 35.3845 132.905 35.3125 132.668 35.3125C132.507 35.3125 132.359 35.3551 132.222 35.4403C132.088 35.5237 131.979 35.6402 131.896 35.7898C131.814 35.9394 131.774 36.1127 131.774 36.3097V39H130.924ZM138.564 33.1818V39H137.714V33.1818H138.564ZM141.045 33.9375V33.1818H145.548V33.9375H143.733V39H142.858V33.9375H141.045ZM147.443 39.0881C147.013 39.0881 146.642 38.9962 146.332 38.8125C146.023 38.6269 145.784 38.3665 145.616 38.0312C145.449 37.6941 145.366 37.2992 145.366 36.8466C145.366 36.3996 145.449 36.0057 145.616 35.6648C145.784 35.3239 146.019 35.0578 146.32 34.8665C146.624 34.6752 146.978 34.5795 147.383 34.5795C147.629 34.5795 147.868 34.6203 148.099 34.7017C148.33 34.7831 148.537 34.911 148.721 35.0852C148.905 35.2595 149.05 35.4858 149.156 35.7642C149.262 36.0407 149.315 36.3769 149.315 36.7727V37.0739H145.846V36.4375H148.482C148.482 36.214 148.437 36.0161 148.346 35.8438C148.255 35.6695 148.127 35.5322 147.963 35.4318C147.8 35.3314 147.608 35.2812 147.389 35.2812C147.15 35.2812 146.942 35.34 146.764 35.4574C146.588 35.5729 146.451 35.7244 146.355 35.9119C146.26 36.0975 146.213 36.2992 146.213 36.517V37.0142C146.213 37.3059 146.264 37.554 146.366 37.7585C146.47 37.9631 146.615 38.1193 146.801 38.2273C146.986 38.3333 147.203 38.3864 147.451 38.3864C147.612 38.3864 147.759 38.3636 147.892 38.3182C148.024 38.2708 148.139 38.2008 148.235 38.108C148.332 38.0152 148.406 37.9006 148.457 37.7642L149.261 37.9091C149.196 38.1458 149.081 38.3532 148.914 38.5312C148.749 38.7074 148.542 38.8447 148.292 38.9432C148.044 39.0398 147.761 39.0881 147.443 39.0881ZM149.977 39V34.6364H150.793V35.3466H150.847C150.938 35.1061 151.086 34.9186 151.293 34.7841C151.499 34.6477 151.746 34.5795 152.034 34.5795C152.326 34.5795 152.57 34.6477 152.767 34.7841C152.966 34.9205 153.113 35.108 153.207 35.3466H153.253C153.357 35.1136 153.523 34.928 153.75 34.7898C153.977 34.6496 154.248 34.5795 154.562 34.5795C154.958 34.5795 155.281 34.7036 155.531 34.9517C155.783 35.1998 155.909 35.5739 155.909 36.0739V39H155.06V36.1534C155.06 35.858 154.979 35.6439 154.818 35.5114C154.657 35.3788 154.465 35.3125 154.241 35.3125C153.965 35.3125 153.75 35.3977 153.597 35.5682C153.443 35.7367 153.366 35.9536 153.366 36.2188V39H152.52V36.0994C152.52 35.8627 152.446 35.6723 152.298 35.5284C152.151 35.3845 151.958 35.3125 151.722 35.3125C151.561 35.3125 151.412 35.3551 151.276 35.4403C151.141 35.5237 151.032 35.6402 150.949 35.7898C150.867 35.9394 150.827 36.1127 150.827 36.3097V39H149.977ZM156.768 40.6364V34.6364H157.597V35.3438H157.668C157.717 35.2528 157.788 35.1477 157.881 35.0284C157.974 34.9091 158.103 34.8049 158.268 34.7159C158.432 34.625 158.65 34.5795 158.921 34.5795C159.273 34.5795 159.588 34.6686 159.864 34.8466C160.141 35.0246 160.358 35.2812 160.515 35.6165C160.674 35.9517 160.753 36.3551 160.753 36.8267C160.753 37.2983 160.675 37.7027 160.518 38.0398C160.36 38.375 160.144 38.6335 159.87 38.8153C159.595 38.9953 159.282 39.0852 158.93 39.0852C158.664 39.0852 158.448 39.0407 158.279 38.9517C158.112 38.8627 157.982 38.7585 157.887 38.6392C157.792 38.5199 157.719 38.4138 157.668 38.321H157.617V40.6364H156.768ZM157.6 36.8182C157.6 37.125 157.644 37.3939 157.733 37.625C157.823 37.8561 157.951 38.0369 158.12 38.1676C158.288 38.2964 158.495 38.3608 158.739 38.3608C158.993 38.3608 159.205 38.2936 159.376 38.1591C159.546 38.0227 159.675 37.8381 159.762 37.6051C159.851 37.3722 159.895 37.1098 159.895 36.8182C159.895 36.5303 159.852 36.2718 159.765 36.0426C159.68 35.8134 159.551 35.6326 159.378 35.5C159.208 35.3674 158.995 35.3011 158.739 35.3011C158.493 35.3011 158.285 35.3646 158.114 35.4915C157.946 35.6184 157.818 35.7955 157.731 36.0227C157.644 36.25 157.6 36.5152 157.6 36.8182ZM162.275 33.1818V39H161.425V33.1818H162.275ZM164.407 39.0966C164.131 39.0966 163.881 39.0455 163.657 38.9432C163.434 38.839 163.257 38.6884 163.126 38.4915C162.997 38.2945 162.933 38.053 162.933 37.767C162.933 37.5208 162.98 37.3182 163.075 37.1591C163.169 37 163.297 36.8741 163.458 36.7812C163.619 36.6884 163.799 36.6184 163.998 36.571C164.197 36.5237 164.4 36.4877 164.606 36.4631C164.867 36.4328 165.08 36.4081 165.242 36.3892C165.405 36.3684 165.524 36.3352 165.598 36.2898C165.671 36.2443 165.708 36.1705 165.708 36.0682V36.0483C165.708 35.8002 165.638 35.608 165.498 35.4716C165.36 35.3352 165.153 35.267 164.879 35.267C164.593 35.267 164.367 35.3305 164.203 35.4574C164.04 35.5824 163.927 35.7216 163.865 35.875L163.066 35.6932C163.161 35.428 163.299 35.214 163.481 35.0511C163.665 34.8864 163.876 34.767 164.115 34.6932C164.353 34.6174 164.604 34.5795 164.867 34.5795C165.042 34.5795 165.226 34.6004 165.421 34.642C165.618 34.6818 165.802 34.7557 165.973 34.8636C166.145 34.9716 166.286 35.1259 166.396 35.3267C166.506 35.5256 166.561 35.7841 166.561 36.1023V39H165.731V38.4034H165.697C165.642 38.5133 165.56 38.6212 165.45 38.7273C165.34 38.8333 165.199 38.9214 165.026 38.9915C164.854 39.0616 164.648 39.0966 164.407 39.0966ZM164.592 38.4148C164.827 38.4148 165.027 38.3684 165.194 38.2756C165.363 38.1828 165.49 38.0616 165.578 37.9119C165.667 37.7604 165.711 37.5985 165.711 37.4261V36.8636C165.681 36.8939 165.622 36.9223 165.535 36.9489C165.45 36.9735 165.352 36.9953 165.242 37.0142C165.133 37.0312 165.026 37.0473 164.921 37.0625C164.817 37.0758 164.73 37.0871 164.66 37.0966C164.495 37.1174 164.345 37.1525 164.208 37.2017C164.074 37.2509 163.966 37.322 163.884 37.4148C163.805 37.5057 163.765 37.6269 163.765 37.7784C163.765 37.9886 163.843 38.1477 163.998 38.2557C164.153 38.3617 164.351 38.4148 164.592 38.4148ZM169.449 34.6364V35.3182H167.065V34.6364H169.449ZM167.705 33.5909H168.554V37.7188C168.554 37.8835 168.579 38.0076 168.628 38.0909C168.677 38.1723 168.741 38.2282 168.818 38.2585C168.898 38.2869 168.984 38.3011 169.077 38.3011C169.145 38.3011 169.205 38.2964 169.256 38.2869C169.307 38.2775 169.347 38.2699 169.375 38.2642L169.528 38.9659C169.479 38.9848 169.409 39.0038 169.318 39.0227C169.227 39.0436 169.114 39.0549 168.977 39.0568C168.754 39.0606 168.545 39.0208 168.352 38.9375C168.159 38.8542 168.003 38.7254 167.884 38.5511C167.764 38.3769 167.705 38.1581 167.705 37.8949V33.5909ZM171.942 39.0881C171.512 39.0881 171.142 38.9962 170.832 38.8125C170.523 38.6269 170.284 38.3665 170.116 38.0312C169.949 37.6941 169.866 37.2992 169.866 36.8466C169.866 36.3996 169.949 36.0057 170.116 35.6648C170.284 35.3239 170.519 35.0578 170.82 34.8665C171.123 34.6752 171.477 34.5795 171.883 34.5795C172.129 34.5795 172.368 34.6203 172.599 34.7017C172.83 34.7831 173.037 34.911 173.221 35.0852C173.404 35.2595 173.549 35.4858 173.655 35.7642C173.761 36.0407 173.814 36.3769 173.814 36.7727V37.0739H170.346V36.4375H172.982C172.982 36.214 172.937 36.0161 172.846 35.8438C172.755 35.6695 172.627 35.5322 172.462 35.4318C172.299 35.3314 172.108 35.2812 171.888 35.2812C171.65 35.2812 171.441 35.34 171.263 35.4574C171.087 35.5729 170.951 35.7244 170.854 35.9119C170.76 36.0975 170.712 36.2992 170.712 36.517V37.0142C170.712 37.3059 170.763 37.554 170.866 37.7585C170.97 37.9631 171.115 38.1193 171.3 38.2273C171.486 38.3333 171.703 38.3864 171.951 38.3864C172.112 38.3864 172.259 38.3636 172.391 38.3182C172.524 38.2708 172.638 38.2008 172.735 38.108C172.832 38.0152 172.905 37.9006 172.957 37.7642L173.761 37.9091C173.696 38.1458 173.581 38.3532 173.414 38.5312C173.249 38.7074 173.042 38.8447 172.792 38.9432C172.544 39.0398 172.261 39.0881 171.942 39.0881Z" fill="#242835"/>
<path d="M11.5971 28.4624C11.9819 27.7033 11.6787 26.7748 10.9195 26.39C10.1604 26.0052 9.23187 26.3084 8.84707 27.0675C8.46228 27.8267 8.76342 28.7552 9.52464 29.14C10.2838 29.5248 11.2123 29.2216 11.5971 28.4624Z" fill="#3350A3"/>
<path d="M20.1734 44.3121L20.0647 44.241C20.3135 43.9692 20.4474 43.5321 20.3512 43.0699C20.2466 42.5617 19.8932 42.1916 19.5105 42.1267C19.2177 42.4007 19.0964 42.9047 19.2072 43.4003C19.2407 43.5509 19.293 43.6868 19.3599 43.806C19.3599 43.806 19.203 43.714 19.0462 43.622C18.8873 43.5321 18.7304 43.4442 18.7304 43.4442L18.6175 43.3815C18.8475 43.0929 18.9458 42.6454 18.8224 42.1937C18.6865 41.6938 18.3143 41.3551 17.9316 41.3132C17.6597 41.606 17.5656 42.1163 17.7078 42.6036C17.7517 42.7499 17.8123 42.8817 17.8855 42.9988C17.8855 42.9988 17.7245 42.9152 17.5614 42.8357C17.3983 42.7562 17.2352 42.6767 17.2352 42.6767L17.118 42.6224C17.3293 42.3191 17.4004 41.8674 17.2498 41.4241C17.0846 40.9368 16.6977 40.6168 16.3129 40.6001C16.0578 40.9075 15.9929 41.422 16.1623 41.8988C16.2125 42.0452 16.2836 42.1727 16.3631 42.2836C16.3631 42.2836 16.1958 42.2125 16.0306 42.1393C15.8633 42.0703 15.696 42.0013 15.696 42.0013L15.5768 41.9511C15.7692 41.6374 15.8173 41.1773 15.6437 40.7486C15.4534 40.2676 15.0498 39.9769 14.6692 39.9748C14.4308 40.2969 14.3931 40.8113 14.5876 41.2819C14.6462 41.4241 14.7235 41.5475 14.8093 41.652L14.1275 41.4073L14.0041 41.3655C14.1798 41.0414 14.2028 40.5834 14.0083 40.1609C13.9017 39.9246 13.7427 39.7427 13.565 39.6172C13.3935 39.4938 13.1718 39.4248 13.0233 39.4415C12.8184 39.7741 12.7556 40.2843 12.9815 40.7486C13.0463 40.8887 13.13 41.0079 13.2199 41.1083L12.5319 40.8908L12.4106 40.8511C12.58 40.5248 12.5904 40.0647 12.4357 39.6569C12.3499 39.4311 12.2328 39.2429 12.0906 39.1195C12.0195 39.0567 11.9442 39.0107 11.8668 38.9794C11.7895 38.9438 11.71 38.925 11.6284 38.9229C11.3859 39.2303 11.2771 39.7364 11.4402 40.2111C11.4904 40.3512 11.5615 40.4746 11.6452 40.5813C11.6452 40.5813 11.4779 40.5185 11.3127 40.4537C11.1495 40.3826 10.9843 40.3115 10.9843 40.3115L10.8672 40.2592C11.0722 39.9497 11.1286 39.5001 11.022 39.0756C10.9069 38.5967 10.6267 38.306 10.3068 38.26C10.0286 38.5402 9.86758 39.0254 9.97215 39.5189C10.0035 39.6716 10.0621 39.795 10.1332 39.91C10.1332 39.91 10.0934 39.8891 10.0328 39.8598C9.97215 39.8305 9.89268 39.7908 9.81739 39.7448C9.66264 39.6569 9.50788 39.5691 9.50788 39.5691L9.39705 39.5064C9.63545 39.2199 9.74002 38.787 9.68982 38.3457C9.66055 38.1031 9.58317 37.9024 9.47442 37.7518C9.36986 37.5949 9.23183 37.4925 9.07081 37.4569C8.7613 37.7058 8.5459 38.1638 8.59609 38.6636C8.61282 38.8142 8.64837 38.9564 8.70902 39.0756C8.70902 39.0756 8.67137 39.0526 8.617 39.0128C8.56263 38.9731 8.48943 38.9229 8.41833 38.8706C8.27403 38.7661 8.12764 38.6636 8.12764 38.6636L8.02517 38.5883C8.29285 38.3373 8.45597 37.9044 8.45388 37.4674C8.44342 36.9885 8.25521 36.6225 7.94361 36.5158C7.61109 36.7229 7.33505 37.162 7.33086 37.6577C7.32877 37.8083 7.35387 37.9505 7.3936 38.0801C7.3936 38.0801 7.25976 37.9609 7.12801 37.8438C7.06109 37.7852 6.99417 37.7246 6.94398 37.6807C6.89379 37.6368 6.86451 37.6033 6.86451 37.6033L6.77458 37.5134C7.06945 37.2938 7.28276 36.886 7.32877 36.4531C7.34968 36.2168 7.33086 35.9951 7.26185 35.8236C7.19284 35.6521 7.07782 35.5225 6.93561 35.443C6.58219 35.6082 6.25595 36.016 6.19112 36.5096C6.17229 36.658 6.18066 36.8003 6.20785 36.932C6.20785 36.932 6.08864 36.8003 5.96735 36.6685C5.9067 36.6037 5.85024 36.5347 5.80841 36.4824C5.76659 36.4301 5.73731 36.3966 5.73731 36.3966L5.65575 36.2983C5.97571 36.1143 6.23294 35.7337 6.32287 35.3113C6.43789 34.8303 6.31241 34.4455 6.04473 34.2573C5.67039 34.3848 5.31069 34.7466 5.18521 35.236C5.14966 35.3824 5.14339 35.5225 5.15593 35.6563C5.15593 35.6563 5.04719 35.5141 4.94471 35.3677C4.84642 35.2192 4.74604 35.0708 4.74604 35.0708L4.67494 34.9641C5.01582 34.8135 5.30441 34.4706 5.4508 34.0523C5.53236 33.8202 5.55118 33.6027 5.51772 33.4187C5.48636 33.2325 5.41107 33.0736 5.28141 32.969C4.89452 33.0569 4.50136 33.3789 4.3257 33.8516C4.27132 33.9958 4.24832 34.136 4.24832 34.2698C4.24832 34.2698 4.15421 34.1192 4.07265 33.9582C3.989 33.8014 3.90535 33.6424 3.90535 33.6424L3.8447 33.5295C4.19813 33.4166 4.52018 33.105 4.71467 32.7013C4.92589 32.2538 4.87779 31.8502 4.65612 31.6055C4.26505 31.6515 3.83843 31.9339 3.61048 32.3897C3.54565 32.5257 3.51219 32.6616 3.49546 32.7955C3.49546 32.7955 3.41808 32.6344 3.34907 32.4692C3.28424 32.3019 3.21941 32.1367 3.21941 32.1367L3.1734 32.0175C3.5331 31.9422 3.89698 31.6599 4.11448 31.2835C4.35916 30.861 4.37798 30.4386 4.15839 30.1814C3.76314 30.1897 3.31143 30.4323 3.05629 30.8589C2.97891 30.9886 2.92663 31.1224 2.89735 31.2542L2.67777 30.5745L2.6464 30.4511C3.01028 30.4114 3.40135 30.1646 3.65858 29.8028C3.80079 29.6021 3.87816 29.3992 3.89908 29.2089C3.92835 29.0165 3.89489 28.8409 3.80079 28.7007C3.40553 28.6735 2.93709 28.8764 2.63594 29.2821C2.54602 29.4034 2.47492 29.5352 2.43936 29.6627C2.43936 29.6627 2.42682 29.6209 2.41218 29.554C2.39963 29.4891 2.38081 29.4013 2.36199 29.3135C2.32643 29.1378 2.29088 28.9621 2.29088 28.9621L2.26579 28.8367C2.63594 28.8283 3.03747 28.6171 3.32397 28.2804C3.6523 27.9019 3.71923 27.4857 3.5582 27.1887C3.1734 27.1281 2.6715 27.2954 2.35153 27.6718C2.25324 27.7868 2.18214 27.9081 2.12985 28.0336C2.12985 28.0336 2.10267 27.8559 2.07757 27.6802C2.04829 27.5045 2.03366 27.3247 2.03366 27.3247L2.02111 27.1971C2.38917 27.218 2.8137 27.0403 3.12321 26.7245C3.45782 26.3752 3.58329 25.9612 3.44109 25.6496C3.0542 25.5596 2.56066 25.6872 2.19887 26.0406C2.09012 26.1473 2.00647 26.2644 1.94164 26.3857L1.90818 25.6705L1.90191 25.5429C2.27206 25.591 2.6945 25.4488 3.03538 25.156C3.41599 24.8298 3.54356 24.4241 3.43272 24.1041C3.06047 23.9849 2.54393 24.079 2.16541 24.4032C2.05039 24.5014 1.96255 24.6123 1.89145 24.7273C1.89145 24.7273 1.89145 24.5475 1.89145 24.3697C1.89145 24.2798 1.89145 24.1898 1.89772 24.1229C1.90191 24.056 1.904 24.0121 1.904 24.0121L1.91027 23.8845C2.26997 23.9598 2.7175 23.8469 3.07093 23.5792C3.45363 23.2801 3.63767 22.8849 3.54147 22.5545C3.17131 22.4102 2.66313 22.4687 2.25742 22.7657C2.13404 22.8556 2.03366 22.9602 1.95419 23.071L2.0232 22.3579L2.03575 22.2303C2.39336 22.3307 2.83461 22.2491 3.21314 22.0066C3.63557 21.7368 3.8217 21.3499 3.75269 21.0132C3.40135 20.8438 2.87435 20.8668 2.45819 21.1366C2.33062 21.2181 2.22605 21.3164 2.1424 21.421C2.1424 21.421 2.1675 21.2432 2.19259 21.0655C2.2156 20.8877 2.25115 20.7121 2.25115 20.7121L2.27624 20.5866C2.6234 20.71 3.07929 20.6598 3.46827 20.4423C3.68367 20.321 3.84052 20.1662 3.94508 20.001C4.05174 19.8358 4.09775 19.658 4.07265 19.4887C3.7255 19.2963 3.21523 19.2858 2.76979 19.5263C2.63594 19.5995 2.51883 19.6873 2.42891 19.7877C2.42891 19.7877 2.43727 19.7438 2.45191 19.679C2.46655 19.6141 2.48746 19.5263 2.50838 19.4385C2.5502 19.2649 2.59203 19.0892 2.59203 19.0892L2.6213 18.9658C2.96009 19.1122 3.41599 19.0913 3.81333 18.8989C4.26714 18.6856 4.51391 18.3301 4.48045 17.985C4.14585 17.7696 3.63767 17.7257 3.18386 17.939C3.04583 18.0038 2.92872 18.0854 2.83043 18.1795L3.0291 17.4915L3.07093 17.3702C3.39717 17.5375 3.85934 17.55 4.27341 17.3827C4.50345 17.2907 4.6833 17.1569 4.8046 17.0042C4.9238 16.8536 5.00327 16.655 4.99909 16.4709C4.67912 16.2325 4.16467 16.1865 3.69622 16.3768C3.55192 16.4354 3.43481 16.5107 3.33234 16.5964C3.33234 16.5964 3.38671 16.427 3.44945 16.2576C3.5101 16.0882 3.57074 15.9168 3.57074 15.9168L3.61466 15.7955C3.93672 15.9732 4.39471 16.0046 4.82133 15.808C5.29187 15.5968 5.58046 15.1346 5.55118 14.7038C5.21031 14.4821 4.69167 14.524 4.23577 14.7603C4.09775 14.8314 3.97854 14.9171 3.87816 15.0091C3.87816 15.0091 3.93254 14.8356 3.98064 14.6578C4.03083 14.4821 4.07265 14.3023 4.07265 14.3023L4.10193 14.1747C4.44072 14.3148 4.90498 14.2897 5.30232 13.9991C5.52191 13.838 5.68294 13.6205 5.77286 13.3884C5.79168 13.3445 5.82096 13.242 5.83142 13.1437C5.84187 13.0287 5.84606 12.9931 5.84815 12.9409C5.85024 12.8384 5.8356 12.7401 5.80423 12.6481C5.42153 12.5268 4.9238 12.6648 4.54319 13.0015C4.48672 13.0559 4.43444 13.1249 4.38007 13.1814C4.32779 13.2357 4.28387 13.2901 4.24205 13.3445C4.24205 13.3445 4.24623 13.2985 4.25459 13.2295C4.26296 13.1646 4.27132 13.058 4.26923 12.968C4.26923 12.7861 4.27132 12.6042 4.27132 12.6042V12.4745C4.52855 12.2403 4.69794 11.8597 4.66448 11.408C4.65403 11.2762 4.61848 11.0901 4.57038 10.9521C4.50136 10.8161 4.39053 10.6969 4.30269 10.6195C4.12493 10.4732 3.92417 10.3874 3.72341 10.3686C3.6063 10.5359 3.53519 10.7429 3.51637 10.9604C3.50382 11.0671 3.49964 11.1424 3.49546 11.226C3.47873 11.318 3.47036 11.3766 3.48082 11.5C3.5101 11.8973 3.68995 12.2486 3.95136 12.4766V12.6063C3.95136 12.6063 3.95136 12.7861 3.94927 12.9639C3.95136 13.0559 3.94299 13.127 3.93672 13.196C3.93044 13.2629 3.92417 13.3068 3.92417 13.3068C3.89698 13.2462 3.86143 13.1855 3.8217 13.1291C3.78196 13.0747 3.73177 13.0371 3.67531 12.989C3.30306 12.6502 2.80115 12.5414 2.41845 12.6481C2.38708 12.7276 2.37035 12.8133 2.37035 12.9032C2.37035 12.9471 2.37453 13.0078 2.3829 12.9911C2.39126 12.9911 2.40381 12.9869 2.41636 13.0412C2.46655 13.2044 2.57111 13.3758 2.73214 13.5473C3.02283 13.8568 3.42017 14.0827 3.78824 14.1015L3.75896 14.2249C3.75896 14.2249 3.71923 14.3964 3.67113 14.5679C3.62512 14.7394 3.57074 14.9088 3.57074 14.9088C3.53938 14.777 3.485 14.6453 3.40135 14.5219C3.1253 14.1057 2.65267 13.9029 2.2637 13.9049C2.07548 14.1433 2.10058 14.5407 2.35153 14.9673C2.58157 15.35 2.94964 15.6219 3.31352 15.6846L3.2696 15.8059C3.2696 15.8059 3.20895 15.9753 3.14831 16.1447C3.08557 16.312 3.0291 16.4856 3.0291 16.4856C3.00192 16.3517 2.95382 16.2116 2.88062 16.0778C2.64222 15.6323 2.20932 15.3521 1.81407 15.3291C1.69696 15.4692 1.63631 15.6407 1.63004 15.8624C1.62377 16.0841 1.67814 16.3225 1.79943 16.5504C2.01902 16.9624 2.39754 17.2154 2.76351 17.2677L2.72169 17.3911L2.52092 18.0875C2.48746 17.9557 2.43309 17.8219 2.35153 17.6881C2.09012 17.2447 1.65304 16.9645 1.25361 16.9666C1.02984 17.2803 1.02775 17.7864 1.29543 18.2234C1.54848 18.6229 1.94582 18.8529 2.31389 18.8801L2.28461 19.0056C2.28461 19.0056 2.24278 19.1812 2.20096 19.359C2.18004 19.4468 2.15913 19.5347 2.1424 19.6016C2.12567 19.6685 2.11731 19.7124 2.11731 19.7124C2.07339 19.5828 2.01483 19.4531 1.927 19.3255C1.6405 18.9094 1.1846 18.6584 0.787254 18.6856C0.68269 18.8487 0.636682 19.0558 0.651321 19.2753C0.670142 19.4949 0.760067 19.7271 0.910639 19.9383C1.1846 20.3189 1.5924 20.5217 1.96255 20.5259L1.93746 20.6535C1.93746 20.6535 1.9019 20.8313 1.8789 21.0111C1.85381 21.191 1.82662 21.3708 1.82662 21.3708C1.77434 21.2453 1.70323 21.1178 1.60494 20.9965C1.2787 20.597 0.822806 20.3795 0.42128 20.4339C0.233065 20.7727 0.308351 21.2767 0.628317 21.6761C0.921096 22.0379 1.35608 22.2136 1.71996 22.1906L1.70742 22.3202L1.6384 23.0438C1.57985 22.9225 1.50247 22.8012 1.39791 22.6862C1.05703 22.3119 0.571852 22.1216 0.180783 22.2052C0.0197549 22.5566 0.105497 23.0543 0.471471 23.4307C0.795619 23.7716 1.22851 23.9159 1.59449 23.8699L1.58821 23.9995C1.58821 23.9995 1.58612 24.0455 1.58194 24.1125C1.57776 24.1794 1.57567 24.2714 1.57567 24.3613C1.57567 24.5433 1.57567 24.7252 1.57567 24.7252C1.50665 24.6081 1.41673 24.4931 1.3038 24.3864C0.927369 24.0351 0.446376 23.8824 0.0553066 23.9912C-0.0910829 24.353 0.0594892 24.8465 0.431737 25.1978C0.770524 25.5157 1.22851 25.6286 1.58403 25.5555L1.5903 25.6851L1.62377 26.4108C1.54848 26.2979 1.45437 26.1891 1.33517 26.0908C0.9441 25.7688 0.435919 25.6496 0.0615804 25.7855C-0.047166 26.1577 0.10968 26.6429 0.527935 26.9629C0.898092 27.2536 1.34772 27.333 1.70323 27.2327L1.71578 27.3623C1.71578 27.3623 1.73042 27.5443 1.7597 27.722C1.78688 27.9019 1.81407 28.0817 1.81407 28.0817C1.72833 27.9751 1.62167 27.8747 1.49411 27.7868C1.06539 27.4962 0.569761 27.4146 0.199605 27.5798C0.113862 27.9625 0.333447 28.4331 0.755885 28.7237C1.14695 28.9872 1.61122 29.027 1.95419 28.8973L1.97928 29.0249C1.97928 29.0249 2.01483 29.2026 2.05248 29.3804C2.0713 29.4703 2.08803 29.5582 2.10267 29.6251C2.11731 29.692 2.12985 29.7359 2.12985 29.7359C2.02947 29.6376 1.927 29.5456 1.79107 29.4661C1.35399 29.2089 0.835353 29.1692 0.48611 29.3658C0.461015 29.5602 0.507023 29.7715 0.615769 29.968C0.730789 30.1625 0.910639 30.3382 1.13859 30.4658C1.55057 30.6958 2.00647 30.6979 2.33898 30.539L2.37244 30.6644L2.59621 31.3567C2.49374 31.2667 2.37453 31.1852 2.23233 31.1203C1.76597 30.9049 1.24524 30.9091 0.914822 31.135C0.910639 31.5261 1.18669 31.9652 1.66768 32.1764C2.10685 32.3667 2.56275 32.3249 2.87853 32.1346L2.92663 32.2559C2.92663 32.2559 2.99355 32.4253 3.05838 32.5947C3.12949 32.762 3.20895 32.9272 3.20895 32.9272C3.09602 32.8477 2.96427 32.7808 2.81788 32.7285C2.34526 32.5529 1.82871 32.6051 1.5192 32.8645C1.52757 33.266 1.8789 33.6696 2.36826 33.8369C2.80952 33.9896 3.2696 33.8976 3.56238 33.678L3.62303 33.793C3.62303 33.793 3.70877 33.954 3.79451 34.1151C3.87607 34.2782 3.97436 34.4329 3.97436 34.4329C3.85307 34.3681 3.71713 34.3116 3.57074 34.274C3.07929 34.1506 2.56693 34.2552 2.28879 34.5438C2.32225 34.7403 2.42472 34.9348 2.58994 35.0917C2.75933 35.2464 2.981 35.3677 3.23405 35.4263C3.69413 35.5308 4.14166 35.3907 4.40935 35.1419L4.48045 35.2506C4.48045 35.2506 4.58083 35.4033 4.6833 35.5539C4.78787 35.7023 4.89871 35.8487 4.89871 35.8487C4.77323 35.7943 4.63102 35.7546 4.47627 35.7337C3.97645 35.6605 3.47873 35.8174 3.23196 36.1331C3.32816 36.5242 3.75478 36.8525 4.26714 36.9153C4.74604 36.9634 5.16639 36.7814 5.40689 36.5033L5.49054 36.6037C5.49054 36.6037 5.51982 36.6392 5.56373 36.6915C5.60765 36.7438 5.66411 36.8149 5.72685 36.8818C5.85024 37.0157 5.97362 37.1516 5.97362 37.1516C5.84396 37.1119 5.69967 37.0868 5.54282 37.0847C5.03046 37.0742 4.55992 37.2771 4.34661 37.6221C4.41562 37.8124 4.57038 37.9756 4.76696 38.0948C4.96563 38.2119 5.20194 38.2892 5.46963 38.2851C5.94853 38.2809 6.34587 38.0529 6.55291 37.7476L6.64492 37.8396C6.64492 37.8396 6.67629 37.8731 6.72648 37.9191C6.77667 37.9651 6.84569 38.0257 6.9147 38.0864C7.05063 38.2077 7.18656 38.329 7.18656 38.329C7.05272 38.3039 6.90842 38.2934 6.75367 38.3081C6.24131 38.3603 5.79586 38.6176 5.62438 38.9835C5.82096 39.3328 6.29359 39.5796 6.82268 39.5085C7.2974 39.452 7.66128 39.1801 7.83277 38.8518L7.93733 38.9292C7.93733 38.9292 8.08581 39.0358 8.2343 39.1425C8.30749 39.1948 8.38278 39.2491 8.43715 39.2889C8.49152 39.3286 8.53126 39.3516 8.53126 39.3516C8.39114 39.3474 8.25103 39.3495 8.09836 39.383C7.59855 39.4875 7.18238 39.8033 7.05691 40.1839C7.17402 40.3471 7.35805 40.4746 7.57554 40.5478C7.79513 40.6168 8.05235 40.6252 8.30749 40.5646C8.76757 40.46 9.10636 40.1317 9.23602 39.7908L9.34895 39.8556C9.34895 39.8556 9.50788 39.9455 9.66682 40.0355C9.7442 40.0815 9.82576 40.1233 9.8885 40.1526C9.94914 40.1839 9.99097 40.2028 9.99097 40.2028C9.85504 40.2111 9.70655 40.2425 9.56226 40.2885C9.08126 40.4474 8.70483 40.8092 8.62327 41.2024C8.88887 41.5098 9.41378 41.6165 9.90314 41.4408C10.3507 41.2735 10.6476 40.918 10.7376 40.5625L10.8568 40.6147C10.8568 40.6147 11.0241 40.6879 11.1914 40.759C11.3608 40.8239 11.5322 40.8887 11.5322 40.8887C11.3963 40.9117 11.2583 40.9535 11.1161 41.0225C10.6539 41.2379 10.3235 41.6332 10.2879 42.0368C10.3632 42.1037 10.451 42.1602 10.5493 42.202C10.6497 42.2397 10.7585 42.2627 10.8714 42.271C11.0993 42.2857 11.3461 42.248 11.5824 42.1288C12.0091 41.9113 12.2642 41.5307 12.3165 41.1647L12.4399 41.2045L13.1279 41.422C12.9961 41.4533 12.8623 41.5056 12.7326 41.5851C12.3123 41.8486 12.0174 42.2752 12.0279 42.6809C12.2035 42.8064 12.3625 42.8503 12.5674 42.8461C12.7661 42.8399 12.9857 42.7709 13.1969 42.6454C13.5817 42.4153 13.8473 42.041 13.9058 41.6771L14.0271 41.7168L14.7026 41.9594C14.5688 41.9845 14.4328 42.0305 14.299 42.1037C13.8577 42.3442 13.5859 42.7792 13.5629 43.1745C13.8264 43.4045 14.2697 43.415 14.7068 43.1849C15.1041 42.9716 15.3865 42.6161 15.4659 42.2543L15.5851 42.3024C15.5851 42.3024 15.7503 42.3714 15.9177 42.4383C16.0829 42.5094 16.246 42.5805 16.246 42.5805C16.1121 42.5973 15.9741 42.6349 15.8361 42.6997C15.3802 42.9193 15.0874 43.3397 15.0414 43.7349C15.2944 43.9733 15.7294 44.0131 16.1812 43.8039C16.5869 43.6157 16.8901 43.2728 16.9905 42.9172L17.1055 42.9716C17.1055 42.9716 17.2665 43.049 17.4276 43.1285C17.5886 43.2058 17.7475 43.2895 17.7475 43.2895C17.6137 43.2979 17.4736 43.3271 17.3314 43.3857C16.865 43.5781 16.5492 43.9817 16.4823 44.3728C16.7186 44.6258 17.1494 44.6865 17.6095 44.5045C18.0236 44.3414 18.3498 44.0152 18.4711 43.668L18.5819 43.7307C18.5819 43.7307 18.7388 43.8186 18.8935 43.9064C19.0483 43.9963 19.203 44.0884 19.203 44.0884C19.0671 44.0904 18.9249 44.1093 18.7827 44.1574C18.3059 44.3205 17.965 44.7032 17.873 45.0901C18.0926 45.3536 18.5108 45.4435 18.9814 45.2908C19.4017 45.1549 19.751 44.8559 19.8974 44.5171L20.004 44.5882L20.2801 44.7743C20.3533 44.8245 20.4536 44.8057 20.5059 44.7346C20.5561 44.6614 20.5373 44.561 20.462 44.5108L20.1734 44.3121Z" fill="#3B60C9"/>
<path d="M43.0143 32.053C45.0366 28.021 45.1265 22.5503 43.2548 17.4183C42.7633 16.0652 42.3367 14.8962 42.2071 13.2357C42.159 10.8182 42.3995 10.1427 42.4267 10.0737C42.5751 9.69935 42.7299 9.34592 42.8951 8.99459L43.6981 7.29647L42.2322 6.12326C37.2236 2.11846 31.1839 0 24.7658 0C18.3456 0 12.306 2.11846 7.29736 6.12535L5.83347 7.29647L6.63234 8.9925C6.79755 9.34383 6.95021 9.69517 7.09869 10.0695C7.10915 10.0967 7.37056 10.7847 7.32246 13.2378C7.19698 14.8732 6.77036 16.0526 6.27682 17.4183C4.40512 22.5503 4.49505 28.0231 6.51732 32.053C8.00631 35.0226 10.4531 37.0867 13.5879 38.0257C18.0423 39.3558 20.9827 41.1417 22.3713 42.1121L24.7658 43.8708L27.1582 42.1142C28.5489 41.1417 31.4934 39.3537 35.9416 38.0257C39.0785 37.0888 41.5232 35.0226 43.0143 32.053ZM25.9704 41.5098L24.7658 42.4111L23.5591 41.5098C22.4215 40.6524 19.1737 38.4544 13.9288 36.8901C11.1139 36.0474 8.9181 34.1924 7.57968 31.5218C5.69963 27.7764 5.63061 22.6569 7.39356 17.8261C7.89965 16.4312 8.37646 15.1095 8.5103 13.2963C8.56049 10.8182 8.31372 9.91057 8.20498 9.63452C8.04813 9.23927 7.8871 8.86284 7.70934 8.4885L7.30991 7.63944L8.04186 7.05388C12.8351 3.21639 18.6195 1.18785 24.7658 1.18785C30.9121 1.18785 36.6945 3.21639 41.4919 7.05179L42.2259 7.63735L41.8244 8.48641C41.6466 8.86075 41.4835 9.23717 41.3266 9.63452C41.1928 9.9733 40.9732 10.8956 41.0234 13.2943C41.1614 15.1346 41.6382 16.4416 42.1422 17.8261C43.9052 22.6548 43.8341 27.7764 41.9561 31.5197C40.6156 34.1903 38.4198 36.0453 35.6049 36.8881C30.3642 38.4523 27.1101 40.6524 25.9704 41.5098Z" fill="#3B60C9"/>
<path d="M47.816 27.3602L47.8286 27.2305C48.1841 27.3309 48.6337 27.2535 49.0039 26.9607C49.4221 26.6387 49.579 26.1556 49.4702 25.7833C49.0938 25.6453 48.5877 25.7645 48.1966 26.0887C48.0774 26.187 47.9833 26.2957 47.908 26.4086L47.9415 25.683L47.9478 25.5533C48.3054 25.6265 48.7613 25.5136 49.1001 25.1957C49.4723 24.8465 49.6208 24.3529 49.4765 23.989C49.0854 23.8803 48.6044 24.035 48.228 24.3843C48.1151 24.4909 48.0251 24.606 47.9561 24.7231C47.9561 24.7231 47.9561 24.5411 47.9561 24.3592C47.9561 24.2693 47.9561 24.1772 47.9499 24.1103C47.9457 24.0413 47.9436 23.9974 47.9436 23.9974L47.9373 23.8677C48.3033 23.9158 48.7362 23.7694 49.0603 23.4286C49.4263 23.0521 49.512 22.5544 49.351 22.2031C48.9599 22.1215 48.4748 22.3097 48.1339 22.6841C48.0293 22.797 47.9519 22.9183 47.8934 23.0417L47.8244 22.3181L47.8118 22.1884C48.1757 22.2114 48.6107 22.0337 48.9035 21.674C49.2234 21.2766 49.2987 20.7705 49.1105 20.4318C48.709 20.3774 48.2531 20.5949 47.9268 20.9943C47.8286 21.1156 47.7575 21.2411 47.7052 21.3687C47.7052 21.3687 47.6801 21.1888 47.6529 21.009C47.6299 20.8291 47.5943 20.6513 47.5943 20.6513L47.5692 20.5238C47.9394 20.5196 48.3472 20.3167 48.6212 19.9361C48.7717 19.727 48.8617 19.4928 48.8805 19.2732C48.8951 19.0536 48.8491 18.8466 48.7445 18.6835C48.3451 18.6542 47.8913 18.9051 47.6048 19.3234C47.517 19.451 47.4584 19.5806 47.4145 19.7103C47.4145 19.7103 47.4061 19.6664 47.3894 19.5994C47.3727 19.5325 47.3517 19.4447 47.3308 19.3568C47.289 19.1812 47.2472 19.0034 47.2472 19.0034L47.2179 18.8779C47.5839 18.8508 47.9833 18.6207 48.2364 18.2213C48.502 17.7842 48.4999 17.2781 48.2782 16.9644C47.8788 16.9623 47.4417 17.2426 47.1761 17.6796C47.0966 17.8114 47.0422 17.9473 47.0067 18.0791L46.8059 17.3827L46.7641 17.2593C47.1301 17.207 47.5086 16.954 47.7282 16.542C47.8495 16.314 47.9038 16.0735 47.8976 15.8519C47.8913 15.6281 47.8286 15.4566 47.7114 15.3165C47.3141 15.3416 46.8833 15.6218 46.6449 16.0673C46.5738 16.2011 46.5257 16.3412 46.4985 16.4751C46.4985 16.4751 46.442 16.3015 46.3793 16.1342C46.3187 15.9648 46.2559 15.7954 46.2559 15.7954L46.212 15.6741C46.5759 15.6114 46.944 15.3374 47.1719 14.9547C47.4229 14.5281 47.4459 14.1328 47.2597 13.8965C46.8687 13.8965 46.396 14.0973 46.12 14.5114C46.0363 14.6368 45.982 14.7686 45.9506 14.8982C45.9506 14.8982 45.8962 14.7288 45.8502 14.5574C45.8021 14.3859 45.7624 14.2144 45.7624 14.2144L45.7352 14.091C46.1033 14.0722 46.5006 13.8463 46.7913 13.5389C46.9523 13.3674 47.059 13.1959 47.1071 13.0286C47.1301 12.9053 47.1531 13.0412 47.151 12.8906C47.151 12.8007 47.1363 12.7149 47.1029 12.6355C46.7223 12.5309 46.2204 12.6397 45.8481 12.9784C45.7917 13.0224 45.7415 13.0642 45.7017 13.1186C45.662 13.1771 45.6264 13.2357 45.5993 13.2984C45.5993 13.2984 45.5951 13.2545 45.5867 13.1876C45.5783 13.1165 45.57 13.0433 45.5721 12.9554C45.57 12.7756 45.57 12.5978 45.57 12.5978V12.4682C45.8314 12.2402 46.0091 11.8868 46.0384 11.4895C46.0426 11.4225 46.0426 11.387 46.0405 11.3452C46.0363 11.3033 46.0301 11.2615 46.0217 11.2197C46.0196 11.136 46.0133 11.0607 46.0029 10.9541C45.9841 10.7366 45.913 10.5296 45.7979 10.3602C45.5993 10.379 45.3985 10.4647 45.2186 10.6111C45.1308 10.6885 45.0221 10.8077 44.9489 10.9415C44.9238 11.0126 44.9029 11.09 44.8882 11.1695C44.8715 11.249 44.861 11.3389 44.8569 11.3995C44.8234 11.8512 44.9949 12.2298 45.2521 12.464V12.5937C45.2521 12.5937 45.2542 12.7756 45.2542 12.9575C45.2521 13.0496 45.2626 13.1541 45.2709 13.2189C45.2793 13.288 45.2835 13.334 45.2835 13.334C45.2416 13.2796 45.1977 13.2252 45.1455 13.1708C45.0932 13.1144 45.0388 13.0475 44.9823 12.9889C44.6017 12.6522 44.104 12.5142 43.7213 12.6376C43.6899 12.7296 43.6753 12.8279 43.6774 12.9283C43.6774 12.9534 43.6795 12.9784 43.6816 13.0056L43.692 13.1395C43.6983 13.1897 43.7108 13.2357 43.7192 13.2796C43.7297 13.3277 43.738 13.3423 43.7506 13.3737C43.8384 13.6016 43.9994 13.8191 44.219 13.9802C44.6164 14.2729 45.0785 14.298 45.4194 14.1579L45.4487 14.2855C45.4487 14.2855 45.4905 14.4653 45.5407 14.641C45.5888 14.8167 45.6432 14.9923 45.6432 14.9923C45.5407 14.9003 45.4236 14.8146 45.2856 14.7435C44.8297 14.5072 44.311 14.4633 43.9702 14.6849C43.943 15.1157 44.2316 15.58 44.7021 15.7912C45.1287 15.9857 45.5867 15.9543 45.9088 15.7766L45.9527 15.8979C45.9527 15.8979 46.0133 16.0673 46.0761 16.2367C46.1388 16.4061 46.1932 16.5754 46.1932 16.5754C46.0907 16.4876 45.9715 16.4144 45.8293 16.3559C45.3609 16.1676 44.8464 16.2137 44.5264 16.4521C44.5243 16.6361 44.6017 16.8327 44.7209 16.9832C44.8422 17.1359 45.0221 17.2677 45.2521 17.3597C45.6683 17.5249 46.1284 17.5144 46.4546 17.3471L46.4964 17.4684L46.6951 18.1565C46.5968 18.0644 46.4797 17.9808 46.3417 17.918C45.8899 17.7047 45.3797 17.7487 45.0451 17.9641C45.0116 18.3091 45.2584 18.6667 45.7122 18.8779C46.1095 19.0724 46.5654 19.0933 46.9042 18.9449L46.9335 19.0703C46.9335 19.0703 46.9753 19.2439 47.0171 19.4196C47.0381 19.5074 47.059 19.5932 47.0736 19.6601C47.0903 19.7249 47.0966 19.7688 47.0966 19.7688C47.0067 19.6705 46.8896 19.5806 46.7557 19.5074C46.3103 19.2669 45.8 19.2774 45.4529 19.4698C45.4278 19.6392 45.4738 19.8169 45.5804 19.9821C45.685 20.1473 45.8418 20.3042 46.0572 20.4234C46.4462 20.643 46.9021 20.6932 47.2493 20.5677L47.2744 20.6932C47.2744 20.6932 47.3099 20.8688 47.3329 21.0466C47.358 21.2244 47.3831 21.4021 47.3831 21.4021C47.2974 21.2976 47.1928 21.1993 47.0673 21.1177C46.6512 20.8458 46.1263 20.8249 45.7728 20.9943C45.7038 21.331 45.8899 21.7158 46.3124 21.9877C46.6888 22.2303 47.1301 22.3139 47.4877 22.2114L47.5002 22.339L47.5692 23.0521C47.4877 22.9413 47.3894 22.8388 47.266 22.7468C46.8582 22.4498 46.35 22.3913 45.982 22.5356C45.8858 22.866 46.0698 23.2613 46.4525 23.5603C46.8059 23.828 47.2535 23.9409 47.6132 23.8656L47.6194 23.9932C47.6194 23.9932 47.6215 24.0371 47.6257 24.104C47.6299 24.171 47.632 24.2609 47.632 24.3508C47.632 24.5307 47.632 24.7084 47.632 24.7084C47.563 24.5934 47.473 24.4826 47.358 24.3843C46.9816 24.0601 46.463 23.966 46.0907 24.0852C45.9799 24.4073 46.1074 24.813 46.4881 25.1371C46.8289 25.4299 47.2514 25.5742 47.6215 25.524L47.6153 25.6516L47.5818 26.3668C47.517 26.2455 47.4333 26.1284 47.3246 26.0217C46.9649 25.6683 46.4692 25.5408 46.0823 25.6307C45.9401 25.9423 46.0656 26.3564 46.4002 26.7056C46.7118 27.0214 47.1363 27.1991 47.5023 27.1782L47.4898 27.3058C47.4898 27.3058 47.4751 27.4836 47.4459 27.6613C47.4187 27.8391 47.3936 28.0147 47.3936 28.0147C47.3413 27.8893 47.2702 27.7659 47.1719 27.6529C46.8519 27.2765 46.35 27.1071 45.9652 27.1699C45.8042 27.4689 45.8732 27.883 46.1995 28.2615C46.486 28.6003 46.8854 28.8094 47.2556 28.8178L47.2305 28.9433C47.2305 28.9433 47.1949 29.1189 47.1594 29.2946C47.1405 29.3824 47.1238 29.4703 47.1092 29.5351C47.0945 29.5999 47.082 29.6438 47.082 29.6438C47.0464 29.5163 46.9753 29.3866 46.8854 29.2632C46.5842 28.8575 46.1158 28.6547 45.7206 28.6819C45.6264 28.822 45.5951 28.9997 45.6223 29.19C45.6432 29.3803 45.7206 29.5832 45.8628 29.784C46.12 30.1437 46.5111 30.3904 46.8749 30.4323L46.8436 30.5556L46.624 31.2353C46.5947 31.1036 46.5424 30.9697 46.465 30.8401C46.2099 30.4134 45.7582 30.1708 45.3629 30.1625C45.1413 30.4197 45.1622 30.8421 45.4069 31.2646C45.6244 31.6431 45.9861 31.9233 46.3479 31.9986L46.3019 32.1178C46.3019 32.1178 46.2371 32.2851 46.1723 32.4503C46.1012 32.6135 46.0238 32.7745 46.0238 32.7745C46.0091 32.6406 45.9757 32.5047 45.9109 32.3688C45.685 31.915 45.2584 31.6306 44.8652 31.5845C44.6456 31.8292 44.5954 32.2328 44.8067 32.6804C44.9991 33.084 45.3211 33.3956 45.6745 33.5085L45.6139 33.6215C45.6139 33.6215 45.5302 33.7783 45.4466 33.9372C45.365 34.0962 45.2709 34.2488 45.2709 34.2488C45.2709 34.115 45.25 33.9749 45.1936 33.8306C45.0179 33.358 44.6247 33.0338 44.2378 32.9481C44.1082 33.0526 44.0329 33.2116 44.0015 33.3977C43.9681 33.5817 43.989 33.7992 44.0684 34.0313C44.2148 34.4496 44.5034 34.7926 44.8422 34.9431L44.7711 35.0498C44.7711 35.0498 44.6728 35.1983 44.5724 35.3468C44.47 35.4931 44.3612 35.6354 44.3612 35.6354C44.3738 35.5015 44.3675 35.3614 44.3319 35.215C44.2065 34.7256 43.8468 34.3618 43.4724 34.2363C43.2047 34.4245 43.0793 34.8093 43.1943 35.2903C43.2863 35.7127 43.5435 36.0933 43.8614 36.2774L43.7798 36.3757C43.7798 36.3757 43.7506 36.4091 43.7087 36.4614C43.6669 36.5137 43.6105 36.5827 43.5498 36.6475C43.4306 36.7793 43.3093 36.911 43.3093 36.911C43.3365 36.7793 43.3449 36.6371 43.326 36.4886C43.2633 35.9951 42.9371 35.5873 42.5836 35.422C42.4414 35.5015 42.3264 35.6291 42.2574 35.8027C42.1884 35.9741 42.1675 36.1958 42.1905 36.4321C42.2365 36.865 42.4477 37.2749 42.7447 37.4924L42.6547 37.5823C42.6547 37.5823 42.6234 37.6158 42.5753 37.6597C42.5251 37.7036 42.4582 37.7643 42.3912 37.8228C42.2574 37.942 42.1256 38.0591 42.1256 38.0591C42.1675 37.9295 42.1905 37.7894 42.1884 37.6367C42.1842 37.1411 41.9082 36.7019 41.5756 36.4949C41.264 36.6036 41.0758 36.9675 41.0654 37.4464C41.0633 37.8835 41.2264 38.3164 41.4941 38.5673L41.3916 38.6426C41.3916 38.6426 41.2473 38.7472 41.1009 38.8497C41.0277 38.9019 40.9566 38.9542 40.9022 38.9919C40.8479 39.0316 40.8102 39.0525 40.8102 39.0525C40.8709 38.9333 40.9064 38.7911 40.9232 38.6405C40.9734 38.1407 40.7559 37.6806 40.4484 37.4339C40.2874 37.4715 40.1494 37.574 40.0469 37.7287C39.9382 37.8793 39.8608 38.078 39.8315 38.3226C39.7813 38.7639 39.8838 39.1989 40.1243 39.4833L40.0135 39.546C40.0135 39.546 39.8587 39.6339 39.7039 39.7217C39.6266 39.7677 39.5471 39.8075 39.4865 39.8367C39.4258 39.866 39.3861 39.8869 39.3861 39.8869C39.4572 39.7719 39.5178 39.6485 39.5471 39.4959C39.6538 39.0023 39.4906 38.5192 39.2146 38.2369C38.8925 38.2829 38.6123 38.5736 38.4973 39.0525C38.3906 39.4749 38.4492 39.9267 38.652 40.2362L38.5349 40.2884C38.5349 40.2884 38.3718 40.3616 38.2066 40.4307C38.0393 40.4934 37.8741 40.5582 37.8741 40.5582C37.9577 40.4516 38.0288 40.3282 38.079 40.1881C38.2421 39.7133 38.1334 39.2073 37.8908 38.8998C37.8092 38.9019 37.7277 38.9207 37.6524 38.9563C37.5729 38.9877 37.4976 39.0337 37.4286 39.0964C37.2885 39.2177 37.1693 39.408 37.0836 39.6339C36.9288 40.0417 36.9393 40.5018 37.1087 40.828L36.9874 40.8677L36.2993 41.0852C36.3914 40.9848 36.4729 40.8656 36.5378 40.7255C36.7636 40.2613 36.7009 39.751 36.4959 39.4185C36.3474 39.4017 36.1237 39.4729 35.9522 39.5941C35.7744 39.7175 35.6155 39.9016 35.5088 40.1379C35.3144 40.5624 35.3374 41.0183 35.513 41.3425L35.3896 41.3843L34.7079 41.629C34.7936 41.5244 34.871 41.401 34.9296 41.2588C35.124 40.7883 35.0864 40.2717 34.8459 39.9518C34.4653 39.9538 34.0617 40.2445 33.8714 40.7255C33.6978 41.1563 33.7459 41.6164 33.9383 41.928L33.8191 41.9782C33.8191 41.9782 33.6518 42.0472 33.4845 42.1162C33.3172 42.1873 33.152 42.2605 33.152 42.2605C33.2314 42.1497 33.3005 42.0221 33.3527 41.8757C33.5221 41.3989 33.4573 40.8845 33.2022 40.577C32.8195 40.5938 32.4326 40.9137 32.2674 41.401C32.1189 41.8444 32.19 42.2961 32.3991 42.5993L32.282 42.6537C32.282 42.6537 32.1189 42.7332 31.9558 42.8126C31.7926 42.89 31.6316 42.9757 31.6316 42.9757C31.7048 42.8607 31.7655 42.729 31.8094 42.5805C31.9516 42.0932 31.8575 41.5829 31.5856 41.2902C31.2029 41.332 30.8327 41.6729 30.6947 42.1706C30.5713 42.6223 30.6696 43.0698 30.8997 43.3584L30.7867 43.4212C30.7867 43.4212 30.6278 43.509 30.471 43.5989C30.3141 43.691 30.1573 43.783 30.1573 43.783C30.2242 43.6638 30.2765 43.5299 30.3099 43.3773C30.4208 42.8816 30.2974 42.3776 30.0067 42.1037C29.624 42.1685 29.2727 42.5387 29.166 43.0468C29.0719 43.509 29.2036 43.9482 29.4525 44.218L29.3438 44.2891L29.0614 44.4773C28.9861 44.5296 28.9673 44.6299 29.0175 44.701C29.0677 44.7742 29.1702 44.791 29.2434 44.7408L29.5194 44.5547L29.6261 44.4836C29.7725 44.8223 30.1217 45.1214 30.5421 45.2573C31.0126 45.41 31.4309 45.3201 31.6504 45.0566C31.5584 44.6718 31.2175 44.287 30.7407 44.1259C30.5964 44.0778 30.4563 44.0569 30.3204 44.0569C30.3204 44.0569 30.4751 43.967 30.6299 43.8771C30.7867 43.7892 30.9415 43.7014 30.9415 43.7014L31.0523 43.6387C31.1736 43.9858 31.4999 44.31 31.9139 44.4752C32.374 44.6571 32.8048 44.5965 33.0411 44.3413C32.9721 43.9503 32.6563 43.5467 32.1921 43.3564C32.0499 43.2978 31.9118 43.2685 31.7759 43.2602C31.7759 43.2602 31.9348 43.1765 32.0959 43.0991C32.2569 43.0217 32.4179 42.9423 32.4179 42.9423L32.533 42.8879C32.6312 43.2413 32.9366 43.5864 33.3423 43.7746C33.7919 43.9837 34.229 43.944 34.482 43.7056C34.436 43.3124 34.1432 42.8921 33.6873 42.6704C33.5493 42.6056 33.4113 42.5679 33.2774 42.5512C33.2774 42.5512 33.4427 42.4801 33.6058 42.409C33.771 42.34 33.9383 42.2731 33.9383 42.2731L34.0575 42.225C34.137 42.5868 34.4214 42.9423 34.8166 43.1556C35.2537 43.3856 35.6971 43.3752 35.9606 43.1451C35.9376 42.7499 35.6636 42.3128 35.2223 42.0744C35.0885 42.0012 34.9526 41.9552 34.8187 41.9301L35.4942 41.6875L35.6155 41.6457C35.6761 42.0096 35.9417 42.3839 36.3265 42.614C36.5378 42.7394 36.7573 42.8063 36.956 42.8147C37.161 42.8189 37.3178 42.775 37.4935 42.6516C37.5039 42.2459 37.207 41.8193 36.7887 41.5558C36.659 41.4763 36.5252 41.424 36.3935 41.3926L37.0815 41.1752L37.2049 41.1354C37.2572 41.5014 37.5123 41.8799 37.9368 42.0995C38.1731 42.2208 38.4178 42.2584 38.6479 42.2438C38.7629 42.2354 38.8716 42.2124 38.9699 42.1748C39.0682 42.133 39.156 42.0786 39.2313 42.0096C39.1958 41.606 38.8653 41.2107 38.4032 40.9953C38.261 40.9263 38.1229 40.8845 37.987 40.8615C37.987 40.8615 38.1564 40.7966 38.3279 40.7318C38.4973 40.6628 38.6625 40.5875 38.6625 40.5875L38.7817 40.5352C38.8716 40.8907 39.1686 41.2463 39.6161 41.4136C40.1055 41.5892 40.6304 41.4847 40.896 41.1752C40.8165 40.782 40.438 40.4202 39.957 40.2613C39.8127 40.2153 39.6642 40.1839 39.5283 40.1755C39.5283 40.1755 39.568 40.1546 39.6308 40.1253C39.6914 40.094 39.773 40.0542 39.8524 40.0082C40.0114 39.9183 40.1703 39.8284 40.1703 39.8284L40.2832 39.7635C40.4129 40.1044 40.7517 40.4327 41.2118 40.5373C41.4669 40.598 41.722 40.5875 41.9437 40.5206C42.1612 40.4474 42.3431 40.3177 42.4623 40.1567C42.339 39.7761 41.9207 39.4603 41.4209 39.3557C41.2682 39.3223 41.1281 39.3202 40.988 39.3244C40.988 39.3244 41.0277 39.3014 41.0821 39.2616C41.1386 39.2219 41.2118 39.1696 41.285 39.1152C41.4334 39.0086 41.5819 38.9019 41.5819 38.9019L41.6865 38.8246C41.858 39.1529 42.2218 39.4247 42.6966 39.4812C43.2257 39.5523 43.6962 39.3055 43.8949 38.9563C43.7234 38.5903 43.2779 38.3331 42.7656 38.2808C42.6108 38.2662 42.4665 38.2745 42.3327 38.3017C42.3327 38.3017 42.4686 38.1804 42.6045 38.0591C42.6736 37.9985 42.7405 37.9378 42.7928 37.8918C42.843 37.8458 42.8743 37.8124 42.8743 37.8124L42.9663 37.7204C43.1734 38.0257 43.5707 38.2536 44.0496 38.2578C44.3173 38.2641 44.5557 38.1867 44.7523 38.0675C44.9489 37.9483 45.1036 37.7873 45.1726 37.5949C44.9593 37.2498 44.4909 37.047 43.9764 37.0574C43.8196 37.0595 43.6753 37.0846 43.5456 37.1243C43.5456 37.1243 43.669 36.9905 43.7924 36.8546C43.8551 36.7876 43.9137 36.7165 43.9555 36.6643C43.9994 36.612 44.0287 36.5764 44.0287 36.5764L44.1124 36.476C44.3529 36.7542 44.7732 36.9361 45.2521 36.888C45.7666 36.8253 46.1911 36.497 46.2873 36.1059C46.0405 35.7901 45.5428 35.6333 45.043 35.7065C44.8882 35.7274 44.746 35.7671 44.6205 35.8215C44.6205 35.8215 44.7314 35.6772 44.8359 35.5266C44.9363 35.3739 45.0388 35.2234 45.0388 35.2234L45.1099 35.1146C45.3776 35.3635 45.8251 35.5036 46.2852 35.399C46.5382 35.3405 46.7599 35.2192 46.9293 35.0644C47.0966 34.9076 47.197 34.7131 47.2305 34.5165C46.9523 34.2279 46.44 34.1234 45.9485 34.2467C45.8 34.2844 45.6662 34.3409 45.5449 34.4057C45.5449 34.4057 45.6411 34.2509 45.7247 34.0878C45.8105 33.9268 45.8962 33.7658 45.8962 33.7658L45.9569 33.6507C46.2496 33.8703 46.7097 33.9644 47.151 33.8097C47.6403 33.6424 47.9917 33.2408 48 32.8393C47.6905 32.5821 47.174 32.5298 46.7014 32.7034C46.555 32.7557 46.4232 32.8226 46.3103 32.9021C46.3103 32.9021 46.3898 32.7368 46.4609 32.5695C46.5278 32.4001 46.5926 32.2308 46.5926 32.2308L46.6407 32.1095C46.9565 32.2998 47.4124 32.3416 47.8516 32.1513C48.3305 31.9401 48.6086 31.5009 48.6044 31.1098C48.274 30.884 47.7533 30.8798 47.2869 31.0952C47.1468 31.16 47.0255 31.2416 46.923 31.3315L47.1468 30.6393L47.1803 30.5138C47.5149 30.6728 47.9708 30.6707 48.3807 30.4406C48.6086 30.3131 48.7885 30.1374 48.9035 29.945C49.0101 29.7505 49.0561 29.5393 49.0331 29.3427C48.6839 29.1461 48.1653 29.1859 47.7282 29.4431C47.5943 29.5205 47.4898 29.6146 47.3894 29.7108C47.3894 29.7108 47.4019 29.6668 47.4166 29.5999C47.4312 29.533 47.4479 29.4431 47.4668 29.3552C47.5023 29.1775 47.54 28.9997 47.54 28.9997L47.5651 28.8722C47.908 29.0018 48.3723 28.96 48.7634 28.6986C49.1858 28.4079 49.4054 27.9374 49.3196 27.5547C48.9474 27.3874 48.4518 27.471 48.0251 27.7596C47.8976 27.8474 47.7909 27.9478 47.7052 28.0545C47.7052 28.0545 47.7324 27.8746 47.7595 27.6948C47.8014 27.5421 47.816 27.3602 47.816 27.3602Z" fill="#3B60C9"/>
<path d="M16.8253 30.5452C16.0934 28.799 15.3531 26.9712 14.2928 25.4153C13.9519 24.9134 13.3204 24.1731 12.67 24.7775C12.0384 25.3631 12.9126 26.6806 12.8456 27.4209C12.7515 28.4414 12.1262 29.4682 11.3483 30.1186C10.8171 30.562 9.27584 31.2918 9.8363 32.1827C10.1876 32.7432 11.1935 32.3437 11.685 32.2517C12.9063 32.0196 14.1067 32.4797 15.0749 33.2221C15.4597 33.5169 15.763 33.9247 16.2126 34.1297C16.3799 34.2071 16.5221 34.2447 16.6434 34.251C16.7647 34.2573 16.8651 34.2343 16.9466 34.1862C17.9881 33.5839 17.3733 31.8356 17.0177 30.997C16.9529 30.8485 16.8902 30.6979 16.8253 30.5452Z" fill="#3350A3"/>
<path d="M40.735 27.195C39.9319 26.668 38.7357 27.9646 37.9159 28.0901C36.7845 28.2616 35.5047 27.8559 34.595 27.1846C33.9718 26.7266 32.7714 25.2501 31.9558 26.0929C31.4434 26.622 32.1419 27.607 32.374 28.1152C32.9512 29.3783 32.7714 30.8004 32.2235 32.0468C32.006 32.5424 31.6463 32.9795 31.5417 33.5211C31.5041 33.724 31.4999 33.8871 31.525 34.021C31.5501 34.1548 31.6024 34.2552 31.6755 34.3326C32.6062 35.3008 34.3356 34.1694 35.1512 33.5609C35.2955 33.4521 35.4419 33.3434 35.5904 33.2346C37.2885 31.9778 39.0724 30.6875 40.4777 29.1232C40.9294 28.6192 41.5652 27.7388 40.735 27.195Z" fill="#3350A3"/>
<path d="M35.172 24.9469C34.9566 25.8712 35.5317 26.7976 36.4561 27.013C37.3825 27.2284 38.3069 26.6533 38.5223 25.729C38.7377 24.8047 38.1626 23.8782 37.2382 23.6628C36.3139 23.4474 35.3874 24.0225 35.172 24.9469Z" fill="#3350A3"/>
<path d="M15.7609 21.996C15.7316 22.5418 15.717 23.073 15.7128 23.5812C15.7651 23.5666 15.8174 23.5561 15.8697 23.5436C15.9219 23.0542 15.9847 22.5648 16.06 22.0755C17.1809 22.3724 18.3708 22.6129 19.5691 22.7928C19.5712 22.7865 19.5712 22.7802 19.5733 22.774C19.6758 22.2637 19.8535 21.7827 20.0961 21.3456C18.8393 21.1072 17.5845 20.7852 16.382 20.3565C16.7585 18.6416 17.3106 16.9686 18.0822 15.3939C19.7218 15.8372 21.4241 16.0359 22.3819 16.1342C22.8713 16.1844 23.3627 16.222 23.8563 16.2429C23.9106 17.0878 23.9671 17.9327 24.0215 18.7775C24.1658 18.765 24.3122 18.7587 24.4606 18.7587C24.5903 18.7587 24.7179 18.765 24.8475 18.7754C24.9019 17.9389 24.9563 17.1045 25.0127 16.268C27.0204 16.2638 29.028 16.0087 30.9478 15.4629C31.8261 17.2676 32.4138 19.2042 32.7839 21.1804C31.5605 21.4816 30.3099 21.6865 29.0614 21.8078C29.1932 22.1173 29.2915 22.4352 29.3584 22.7614C30.5525 22.5377 31.7404 22.2302 32.8989 21.835C33.0746 22.9141 33.1875 24.0016 33.2524 25.0848C33.2984 24.0873 33.2942 22.9392 33.2168 21.7241C35.2684 20.9901 37.2195 19.98 38.9344 18.6918C39.9152 20.6304 40.5196 22.797 40.6429 25.0848C40.7245 22.6799 40.2791 20.392 39.4154 18.3154L39.4049 18.2903C36.9727 12.4786 31.2552 8.3337 24.6279 7.94681C24.6196 7.94681 24.6133 7.94472 24.6049 7.94472C24.5966 7.94472 24.5903 7.94263 24.5819 7.94263H24.4063C24.3979 7.94263 24.3916 7.94472 24.3833 7.94472C24.377 7.94472 24.3728 7.94681 24.3665 7.94681C15.3238 8.42989 8.08383 15.9585 8.34524 25.0827C8.4519 22.9015 8.99772 20.8374 9.89279 18.9783C10.9552 20.2561 13.1594 21.2787 15.7609 21.996ZM38.9051 18.6291C37.1651 19.7437 35.2098 20.5489 33.1729 21.0842C33.0119 19.1351 32.6605 17.0481 32.0331 15.122C33.0746 14.756 34.0847 14.3001 35.0467 13.7438C36.6298 15.0927 37.9452 16.7532 38.9051 18.6291ZM34.9944 13.6999C33.999 14.1537 32.9659 14.5051 31.9119 14.7644C31.3995 13.2879 30.7156 11.9223 29.8227 10.8035C31.7341 11.4309 33.4845 12.4221 34.9944 13.6999ZM25.4184 10.1071C27.8673 10.5065 29.6512 12.9491 30.724 15.0153C28.8711 15.3478 26.9681 15.4085 25.0817 15.237C25.1947 13.5263 25.3055 11.8157 25.4184 10.1071ZM23.4568 10.128C23.5656 11.778 23.6722 13.4301 23.781 15.0802C22.133 14.8418 20.4998 14.4319 18.9564 13.8191C20.0229 12.1315 21.5287 10.5003 23.4568 10.128ZM19.1592 10.8265C18.582 11.5543 18.0906 12.3845 17.6786 13.2817C17.0847 13.0056 16.4803 12.6606 16.0892 12.2235C17.0533 11.6526 18.0801 11.182 19.1592 10.8265ZM14.3409 13.428C14.9265 14.137 15.8968 14.664 16.9864 15.0551C16.4406 16.7072 16.0997 18.4806 15.9115 20.185C14.044 19.4698 12.3208 18.4869 10.928 17.1631C11.8607 15.741 13.0151 14.48 14.3409 13.428ZM10.1166 18.5475C10.0789 18.7211 10.0141 18.8716 9.90115 18.9783C9.97016 18.834 10.0434 18.6897 10.1166 18.5475Z" fill="#3350A3"/>
<path d="M21.7357 22.9309C21.4346 24.4429 22.4133 25.911 23.9253 26.2142C25.4373 26.5154 26.9053 25.5367 27.2086 24.0247C27.5097 22.5127 26.531 21.0446 25.019 20.7414C23.507 20.4381 22.0368 21.4189 21.7357 22.9309Z" fill="#242835"/>
<path d="M30.4291 27.1322C29.1053 26.5048 27.1834 27.8035 25.8931 28.067C24.172 28.4183 22.5805 27.6446 21.2275 26.6428C20.3449 25.9883 18.0571 23.9848 16.8964 25.0221C15.5705 26.2099 18.1386 28.5187 18.7953 29.4556C19.9016 31.0345 20.8991 32.6971 21.6645 34.4705C22.1623 35.627 22.3024 36.8483 22.913 37.8542C23.1472 38.2411 23.4526 38.5945 23.8729 38.9019C24.9562 39.6903 26.4598 39.8702 26.9659 38.3582C27.3403 37.2393 26.8697 36.0201 26.9638 34.8783C27.0956 33.2805 27.7857 31.7205 28.9275 30.587C29.7285 29.7923 32.0707 28.2929 30.4291 27.1322Z" fill="#242835"/>
</svg>
